<mxfile host="app.diagrams.net" agent="Mozilla/5.0 (X11; Ubuntu; Linux x86_64; rv:143.0) Gecko/20100101 Firefox/143.0" version="28.2.5">
  <diagram name="Seite-1" id="tv3RCUC1lsHie5otSo7a">
    <mxGraphModel dx="815" dy="472" grid="1" gridSize="10" guides="1" tooltips="1" connect="1" arrows="1" fold="1" page="1" pageScale="1" pageWidth="827" pageHeight="1169" math="0" shadow="0">
      <root>
        <mxCell id="0" />
        <mxCell id="1" parent="0" />
        <mxCell id="or_CeoF1ms0C0JRZWl1a-63" value="&lt;div&gt;&amp;lt;&amp;lt;interface&amp;gt;&amp;gt;&lt;/div&gt;&lt;div&gt;&lt;b&gt;ReplicFileAccessor&lt;/b&gt;&lt;/div&gt;&lt;div&gt;&lt;br&gt;&lt;/div&gt;" style="swimlane;fontStyle=0;align=center;verticalAlign=top;childLayout=stackLayout;horizontal=1;startSize=40;horizontalStack=0;resizeParent=1;resizeParentMax=0;resizeLast=0;collapsible=0;marginBottom=0;html=1;whiteSpace=wrap;" vertex="1" parent="1">
          <mxGeometry x="308" y="160" width="352" height="108" as="geometry" />
        </mxCell>
        <mxCell id="or_CeoF1ms0C0JRZWl1a-64" value="" style="line;strokeWidth=1;fillColor=none;align=left;verticalAlign=middle;spacingTop=-1;spacingLeft=3;spacingRight=3;rotatable=0;labelPosition=right;points=[];portConstraint=eastwest;" vertex="1" parent="or_CeoF1ms0C0JRZWl1a-63">
          <mxGeometry y="40" width="352" height="8" as="geometry" />
        </mxCell>
        <mxCell id="or_CeoF1ms0C0JRZWl1a-65" value="createForReplic(UUID): File" style="text;html=1;strokeColor=none;fillColor=none;align=left;verticalAlign=middle;spacingLeft=4;spacingRight=4;overflow=hidden;rotatable=0;points=[[0,0.5],[1,0.5]];portConstraint=eastwest;whiteSpace=wrap;" vertex="1" parent="or_CeoF1ms0C0JRZWl1a-63">
          <mxGeometry y="48" width="352" height="20" as="geometry" />
        </mxCell>
        <mxCell id="or_CeoF1ms0C0JRZWl1a-66" value="getDataSize(UUID): long throws NotFoundException" style="text;html=1;strokeColor=none;fillColor=none;align=left;verticalAlign=middle;spacingLeft=4;spacingRight=4;overflow=hidden;rotatable=0;points=[[0,0.5],[1,0.5]];portConstraint=eastwest;whiteSpace=wrap;" vertex="1" parent="or_CeoF1ms0C0JRZWl1a-63">
          <mxGeometry y="68" width="352" height="20" as="geometry" />
        </mxCell>
        <mxCell id="or_CeoF1ms0C0JRZWl1a-68" value="getDataStream(UUID): InputStream throws NotFoundException" style="text;html=1;strokeColor=none;fillColor=none;align=left;verticalAlign=middle;spacingLeft=4;spacingRight=4;overflow=hidden;rotatable=0;points=[[0,0.5],[1,0.5]];portConstraint=eastwest;whiteSpace=wrap;" vertex="1" parent="or_CeoF1ms0C0JRZWl1a-63">
          <mxGeometry y="88" width="352" height="20" as="geometry" />
        </mxCell>
      </root>
    </mxGraphModel>
  </diagram>
</mxfile>
